<?xml version="1.0" encoding="UTF-8"?>
<svg id="Layer_1" data-name="Layer 1" xmlns="http://www.w3.org/2000/svg" viewBox="0 0 512 512">
  <defs>
    <style>
      .cls-1 {
        fill: #6bc2d5;
      }

      .cls-2 {
        fill: #112b52;
      }
    </style>
  </defs>
  <path class="cls-1" d="M395.16,335.22c1.53.26,1.29-1.94,1.54-3.09,4.9-21.94,7.39-51.21,14.26-71.68,4.13-12.3,16.26-22.28,29.23-23.57,13.43-1.33,46.92-1.61,60.06-.03,15.39,1.85,17.6,25.2-5.16,26.98-16.41,1.28-35.83-1.9-51.82-.06-5.28.61-6.07,2.51-7.44,7.05-8.58,28.47-9.71,62.44-18.43,91.3-9.09,19.73-36.95,17.88-43.49-3.07l-36.74-184.28-6.74,22.75c-4.48,11.53-14.97,18.98-27.18,20.44-15.18,1.81-47.43,1.64-62.9.32-20.84-1.78-18.52-25.12-3.09-26.97l65.74-.51c1.56-.99,2.46-2.4,3.18-4.06,6.26-14.38,4.72-44.25,19.91-52.55,13.01-7.11,28.09-.2,32.53,13.44l36.53,187.6Z"/>
  <path class="cls-2" d="M83.03,206.86c15.54,1.32,34.36,9.12,41.09,24.13,9.1,20.29,1.51,41.74-18.45,51.31-.97.47-10.19,2.3-7.63,4.27,41.03,1.27,50.83,56.64,17.93,77.46-5.4,3.42-20.66,9.5-26.73,9.5H4.36c-.11,0-1.55-1.44-1.55-1.55v-163.56c0-.11,1.44-1.55,1.55-1.55h78.68ZM39.55,233.77c-.34.53-1.55,1.27-1.55,1.55v39.34c0,.11,1.44,1.55,1.55,1.55h31.06c.74,0,8.53-2.13,9.81-2.61,16.49-6.25,17.25-29.91.74-36.92-1.65-.7-8.28-2.91-9.51-2.91h-32.09ZM39.55,300.03c-.34.53-1.55,1.27-1.55,1.55v43.48c0,.11,1.44,1.55,1.55,1.55h37.27c1.01,0,7.28-2.02,8.78-2.6,17.63-6.82,19.75-31.76,3.02-40.25-1.37-.7-9.9-3.73-10.76-3.73h-38.3Z"/>
  <path class="cls-2" d="M258.29,243.4c48.68-2.98,73.58,34.18,67.38,79.79-5.73,42.13-42.89,61.7-82.7,50.86-61.17-16.67-57.85-126.17,15.32-130.65ZM259.29,271.31c-33.91,4.65-33.42,83.18,8.96,77.27,33.64-4.69,32.11-82.91-8.96-77.27Z"/>
  <rect class="cls-2" x="152.91" y="233.77" width="33.13" height="139.75"/>
  <path class="cls-2" d="M436.04,194.43c-8.23-1.05-10.03-8.24-9.76-15.89.66-18.69,14.75-12,27.88-13.09.87-.87-1.18-18.95.53-22.76,2.83-6.32,25.69-5.27,27.25-.37l1.19,23.13c11.6,1.7,24.83-5.99,26.8,9.94,2.75,22.21-9.62,19.18-26.8,19.03-.47,6.09,1.11,22.09-4.22,25.28-4.45,2.66-19.59,2.66-23.18-1.49-3.44-3.97-.7-18.22-1.58-23.78-5.74-.52-12.54.72-18.12,0Z"/>
  <path class="cls-1" d="M165.05,191.57c23.46-4.85,25.85,31.07,2.85,29.86-17.53-.92-18.48-26.63-2.85-29.86Z"/>
</svg>